<mxfile host="app.diagrams.net" agent="Mozilla/5.0 (Windows NT 10.0; Win64; x64) AppleWebKit/537.36 (KHTML, like Gecko) Chrome/134.0.0.0 Safari/537.36" version="26.1.0">
  <diagram name="Page-1" id="h24a8CmWY-nS7WJ-UeM8">
    <mxGraphModel dx="1259" dy="655" grid="1" gridSize="10" guides="1" tooltips="1" connect="1" arrows="1" fold="1" page="1" pageScale="1" pageWidth="850" pageHeight="1100" math="0" shadow="0">
      <root>
        <mxCell id="0" />
        <mxCell id="1" parent="0" />
        <mxCell id="6futWtoiO5P2bIfDvEZp-1" value="" style="rounded=0;whiteSpace=wrap;html=1;" vertex="1" parent="1">
          <mxGeometry y="120" width="750" height="410" as="geometry" />
        </mxCell>
        <mxCell id="6futWtoiO5P2bIfDvEZp-2" value="" style="rounded=1;whiteSpace=wrap;html=1;" vertex="1" parent="1">
          <mxGeometry x="60" y="190" width="260" height="210" as="geometry" />
        </mxCell>
        <mxCell id="6futWtoiO5P2bIfDvEZp-3" value="&lt;b&gt;Expense&lt;/b&gt;" style="text;html=1;align=center;verticalAlign=middle;resizable=0;points=[];autosize=1;strokeColor=none;fillColor=none;" vertex="1" parent="1">
          <mxGeometry x="100" y="190" width="70" height="30" as="geometry" />
        </mxCell>
        <mxCell id="6futWtoiO5P2bIfDvEZp-4" value="&lt;b&gt;pod&lt;/b&gt;" style="ellipse;whiteSpace=wrap;html=1;aspect=fixed;" vertex="1" parent="1">
          <mxGeometry x="140" y="250" width="80" height="80" as="geometry" />
        </mxCell>
        <mxCell id="6futWtoiO5P2bIfDvEZp-5" value="" style="rounded=1;whiteSpace=wrap;html=1;" vertex="1" parent="1">
          <mxGeometry x="410" y="185" width="260" height="210" as="geometry" />
        </mxCell>
        <mxCell id="6futWtoiO5P2bIfDvEZp-6" value="&lt;b&gt;default&lt;/b&gt;" style="text;html=1;align=center;verticalAlign=middle;resizable=0;points=[];autosize=1;strokeColor=none;fillColor=none;" vertex="1" parent="1">
          <mxGeometry x="520" y="190" width="60" height="30" as="geometry" />
        </mxCell>
        <mxCell id="6futWtoiO5P2bIfDvEZp-7" value="&lt;b&gt;pod&lt;/b&gt;" style="ellipse;whiteSpace=wrap;html=1;aspect=fixed;" vertex="1" parent="1">
          <mxGeometry x="500" y="250" width="80" height="80" as="geometry" />
        </mxCell>
        <mxCell id="6futWtoiO5P2bIfDvEZp-8" style="edgeStyle=orthogonalEdgeStyle;rounded=0;orthogonalLoop=1;jettySize=auto;html=1;" edge="1" parent="1" source="6futWtoiO5P2bIfDvEZp-4" target="6futWtoiO5P2bIfDvEZp-7">
          <mxGeometry relative="1" as="geometry" />
        </mxCell>
      </root>
    </mxGraphModel>
  </diagram>
</mxfile>
